TITLE ""
FILE "Step2_Track47.mp3" MP3
  TRACK 01 AUDIO
    TITLE "Step2_Track47_01"
    INDEX 01 00:00:00
  TRACK 02 AUDIO
    TITLE "Step2_Track47_02"
    INDEX 01 00:00:24
  TRACK 03 AUDIO
    TITLE "Step2_Track47_03"
    INDEX 01 00:02:03
  TRACK 04 AUDIO
    TITLE "Step2_Track47_04"
    INDEX 01 00:02:64
  TRACK 05 AUDIO
    TITLE "Step2_Track47_05"
    INDEX 01 00:03:60
  TRACK 06 AUDIO
    TITLE "Step2_Track47_06"
    INDEX 01 00:04:00
  TRACK 07 AUDIO
    TITLE "Step2_Track47_07"
    INDEX 01 00:05:47
  TRACK 08 AUDIO
    TITLE "Step2_Track47_08"
    INDEX 01 00:06:09
  TRACK 09 AUDIO
    TITLE "Step2_Track47_09"
    INDEX 01 00:07:03
  TRACK 10 AUDIO
    TITLE "Step2_Track47_10"
    INDEX 01 00:07:18
  TRACK 11 AUDIO
    TITLE "Step2_Track47_11"
    INDEX 01 00:08:59
  TRACK 12 AUDIO
    TITLE "Step2_Track47_12"
    INDEX 01 00:09:11
  TRACK 13 AUDIO
    TITLE "Step2_Track47_13"
    INDEX 01 00:10:09
  TRACK 14 AUDIO
    TITLE "Step2_Track47_14"
    INDEX 01 00:10:26
  TRACK 15 AUDIO
    TITLE "Step2_Track47_15"
    INDEX 01 00:12:29
  TRACK 16 AUDIO
    TITLE "Step2_Track47_16"
    INDEX 01 00:12:64
  TRACK 17 AUDIO
    TITLE "Step2_Track47_17"
    INDEX 01 00:13:60
  TRACK 18 AUDIO
    TITLE "Step2_Track47_18"
    INDEX 01 00:14:07
  TRACK 19 AUDIO
    TITLE "Step2_Track47_19"
    INDEX 01 00:16:13
  TRACK 20 AUDIO
    TITLE "Step2_Track47_20"
    INDEX 01 00:16:45
  TRACK 21 AUDIO
    TITLE "Step2_Track47_21"
    INDEX 01 00:17:38
  TRACK 22 AUDIO
    TITLE "Step2_Track47_22"
    INDEX 01 00:17:52
  TRACK 23 AUDIO
    TITLE "Step2_Track47_23"
    INDEX 01 00:19:43
  TRACK 24 AUDIO
    TITLE "Step2_Track47_24"
    INDEX 01 00:19:68
  TRACK 25 AUDIO
    TITLE "Step2_Track47_25"
    INDEX 01 00:20:70
  TRACK 26 AUDIO
    TITLE "Step2_Track47_26"
    INDEX 01 00:21:01
  TRACK 27 AUDIO
    TITLE "Step2_Track47_27"
    INDEX 01 00:23:52
  TRACK 28 AUDIO
    TITLE "Step2_Track47_28"
    INDEX 01 00:24:15
  TRACK 29 AUDIO
    TITLE "Step2_Track47_29"
    INDEX 01 00:25:16
  TRACK 30 AUDIO
    TITLE "Step2_Track47_30"
    INDEX 01 00:25:34
  TRACK 31 AUDIO
    TITLE "Step2_Track47_31"
    INDEX 01 00:26:66
  TRACK 32 AUDIO
    TITLE "Step2_Track47_32"
    INDEX 01 00:27:31
  TRACK 33 AUDIO
    TITLE "Step2_Track47_33"
    INDEX 01 00:28:13
  TRACK 34 AUDIO
    TITLE "Step2_Track47_34"
    INDEX 01 00:28:40
  TRACK 35 AUDIO
    TITLE "Step2_Track47_35"
    INDEX 01 00:32:24
  TRACK 36 AUDIO
    TITLE "Step2_Track47_36"
    INDEX 01 00:32:53
  TRACK 37 AUDIO
    TITLE "Step2_Track47_37"
    INDEX 01 00:33:53
  TRACK 38 AUDIO
    TITLE "Step2_Track47_38"
    INDEX 01 00:33:65
  TRACK 39 AUDIO
    TITLE "Step2_Track47_39"
    INDEX 01 00:36:02
  TRACK 40 AUDIO
    TITLE "Step2_Track47_40"
    INDEX 01 00:36:30
  TRACK 41 AUDIO
    TITLE "Step2_Track47_41"
    INDEX 01 00:37:23
  TRACK 42 AUDIO
    TITLE "Step2_Track47_42"
    INDEX 01 00:37:29
  TRACK 43 AUDIO
    TITLE "Step2_Track47_43"
    INDEX 01 00:39:36
